<svg width="146" height="40" viewBox="0 0 146 40" fill="none" xmlns="http://www.w3.org/2000/svg">
<g id="Group 29">
<g id="Facebook Icon">
<rect id="Rectangle" opacity="0.15" x="1.24219" y="1.50098" width="37.5" height="37.5" rx="18.75" stroke="white" stroke-width="1.5"/>
<path id="Shape" fill-rule="evenodd" clip-rule="evenodd" d="M18.0429 27.751V20.2504H16.4922V17.6655H18.0429V16.1136C18.0429 14.0049 18.9186 12.751 21.4064 12.751H23.4775V15.3361H22.1829C21.2145 15.3361 21.1504 15.6973 21.1504 16.3715L21.1469 17.6653H23.4922L23.2178 20.2501H21.1469V27.751H18.0429Z" fill="#D12E31"/>
</g>
<g id="Linkedin Icon">
<rect id="Rectangle_2" opacity="0.15" x="54.2422" y="1.50098" width="37.5" height="37.5" rx="18.75" stroke="white" stroke-width="1.5"/>
<g id="Group 14">
<path id="Shape_2" fill-rule="evenodd" clip-rule="evenodd" d="M69.4922 26.751H66.4922V17.751H69.4922V26.751V26.751Z" fill="#D12E31"/>
<path id="Shape_3" fill-rule="evenodd" clip-rule="evenodd" d="M67.9833 15.751H67.9662C67.071 15.751 66.4922 15.084 66.4922 14.2505C66.4922 13.3993 67.0886 12.751 68.0008 12.751C68.9131 12.751 69.4749 13.3993 69.4922 14.2505C69.4922 15.084 68.9131 15.751 67.9833 15.751V15.751Z" fill="#D12E31"/>
<path id="Shape_4" fill-rule="evenodd" clip-rule="evenodd" d="M80.4921 26.7507H77.5441V22.0463C77.5441 20.8647 77.1175 20.0584 76.0503 20.0584C75.2359 20.0584 74.7507 20.6019 74.5377 21.127C74.4597 21.3151 74.4406 21.5773 74.4406 21.8401V26.751H71.4922C71.4922 26.751 71.531 18.7828 71.4922 17.9577H74.4406V19.2032C74.8319 18.6045 75.5326 17.751 77.0979 17.751C79.0378 17.751 80.4922 19.008 80.4922 21.7089L80.4921 26.7507V26.7507Z" fill="#D12E31"/>
</g>
</g>
<g id="Twitter Icon">
<rect id="Rectangle_3" opacity="0.15" x="107.242" y="1.50098" width="37.5" height="37.5" rx="18.75" stroke="white" stroke-width="1.5"/>
<path id="Twitter" fill-rule="evenodd" clip-rule="evenodd" d="M125.804 17.6771L125.833 18.1529L125.363 18.0947C123.653 17.8713 122.16 17.114 120.892 15.842L120.272 15.2109L120.112 15.6769C119.774 16.7159 119.99 17.8131 120.695 18.551C121.07 18.9588 120.986 19.0171 120.338 18.7744C120.112 18.6967 119.915 18.6384 119.896 18.6676C119.83 18.7355 120.056 19.6191 120.234 19.9687C120.478 20.4542 120.976 20.9299 121.521 21.2115L121.981 21.4348L121.437 21.4446C120.911 21.4446 120.892 21.4543 120.948 21.6582C121.136 22.2893 121.878 22.9593 122.705 23.2506L123.287 23.4545L122.78 23.7652C122.028 24.2119 121.145 24.4643 120.262 24.4837C119.84 24.4934 119.492 24.5323 119.492 24.5614C119.492 24.6585 120.638 25.2023 121.305 25.4159C123.306 26.047 125.682 25.7751 127.467 24.6973C128.735 23.9303 130.003 22.4058 130.595 20.9299C130.914 20.1434 131.234 18.7064 131.234 18.017C131.234 17.5703 131.262 17.5121 131.788 16.978C132.098 16.6673 132.389 16.3275 132.445 16.2304C132.539 16.0459 132.53 16.0459 132.051 16.211C131.252 16.5023 131.14 16.4634 131.534 16.0265C131.825 15.7158 132.173 15.1526 132.173 14.9875C132.173 14.9584 132.032 15.0069 131.872 15.0943C131.703 15.1914 131.328 15.3371 131.046 15.4245L130.539 15.5895L130.078 15.2691C129.825 15.0943 129.468 14.9001 129.28 14.8419C128.801 14.7059 128.068 14.7254 127.636 14.8807C126.462 15.3177 125.72 16.444 125.804 17.6771Z" fill="#D12E31"/>
</g>
</g>
</svg>
